<svg width="13" height="13" viewBox="0 0 13 13" fill="none" xmlns="http://www.w3.org/2000/svg">
<path d="M1.37404 1.83203C1.13109 1.83203 0.898096 1.92854 0.726307 2.10033C0.554518 2.27212 0.458008 2.50511 0.458008 2.74806V11.4504C0.458008 11.6933 0.554518 11.9263 0.726307 12.0981C0.898096 12.2698 1.13109 12.3664 1.37404 12.3664H11.4504C11.6933 12.3664 11.9263 12.2698 12.0981 12.0981C12.2699 11.9263 12.3664 11.6933 12.3664 11.4504V2.74806C12.3664 2.50511 12.2699 2.27212 12.0981 2.10033C11.9263 1.92854 11.6933 1.83203 11.4504 1.83203H9.61831" stroke="#555E67" stroke-width="0.916031" stroke-linecap="round" stroke-linejoin="round"/>
<path d="M0.458008 5.03809H12.3664" stroke="#555E67" stroke-width="0.916031" stroke-linecap="round" stroke-linejoin="round"/>
<path d="M3.20605 0.458008V3.2061" stroke="#555E67" stroke-width="0.916031" stroke-linecap="round" stroke-linejoin="round"/>
<path d="M9.61841 0.458008V3.2061" stroke="#555E67" stroke-width="0.916031" stroke-linecap="round" stroke-linejoin="round"/>
<path d="M3.20605 1.83203H7.78621" stroke="#555E67" stroke-width="0.916031" stroke-linecap="round" stroke-linejoin="round"/>
</svg>
