<svg width="14" height="14" viewBox="0 0 14 14" fill="none" xmlns="http://www.w3.org/2000/svg">
    <path d="M7 0C5.61553 0 4.26216 0.410543 3.11101 1.17971C1.95987 1.94888 1.06266 3.04213 0.532846 4.32122C0.00303299 5.6003 -0.13559 7.00776 0.134506 8.36563C0.404603 9.7235 1.07129 10.9708 2.05026 11.9497C3.02922 12.9287 4.2765 13.5954 5.63437 13.8655C6.99224 14.1356 8.3997 13.997 9.67879 13.4672C10.9579 12.9373 12.0511 12.0401 12.8203 10.889C13.5895 9.73785 14 8.38447 14 7C13.998 5.14409 13.2599 3.36475 11.9476 2.05242C10.6353 0.740087 8.85592 0.00195988 7 0ZM9.63173 8.87048C10.0213 8.32458 10.2307 7.67066 10.2307 7C10.2307 6.32934 10.0213 5.67542 9.63173 5.12952L11.55 3.21192C12.4372 4.27486 12.9231 5.61547 12.9231 7C12.9231 8.38453 12.4372 9.72514 11.55 10.7881L9.63173 8.87048ZM4.84616 7C4.84616 6.57401 4.97248 6.15758 5.20914 5.80339C5.44581 5.44919 5.7822 5.17312 6.17576 5.0101C6.56932 4.84708 7.00239 4.80443 7.4202 4.88754C7.838 4.97064 8.22178 5.17578 8.523 5.477C8.82422 5.77822 9.02936 6.162 9.11246 6.5798C9.19557 6.99761 9.15292 7.43068 8.9899 7.82424C8.82688 8.2178 8.55081 8.55419 8.19661 8.79086C7.84242 9.02752 7.42599 9.15384 7 9.15384C6.42877 9.15384 5.88093 8.92692 5.477 8.523C5.07308 8.11907 4.84616 7.57123 4.84616 7ZM10.7881 2.45L8.87048 4.36827C8.32458 3.97869 7.67066 3.76928 7 3.76928C6.32934 3.76928 5.67542 3.97869 5.12952 4.36827L3.21193 2.45C4.27486 1.56282 5.61547 1.07686 7 1.07686C8.38453 1.07686 9.72514 1.56282 10.7881 2.45ZM2.45 3.21192L4.36827 5.12952C3.97869 5.67542 3.76928 6.32934 3.76928 7C3.76928 7.67066 3.97869 8.32458 4.36827 8.87048L2.45 10.7881C1.56282 9.72514 1.07686 8.38453 1.07686 7C1.07686 5.61547 1.56282 4.27486 2.45 3.21192ZM3.21193 11.55L5.12952 9.63173C5.67542 10.0213 6.32934 10.2307 7 10.2307C7.67066 10.2307 8.32458 10.0213 8.87048 9.63173L10.7881 11.55C9.72514 12.4372 8.38453 12.9231 7 12.9231C5.61547 12.9231 4.27486 12.4372 3.21193 11.55Z" fill="#1A1A1A"/>
</svg>

