<svg width="14" height="16" viewBox="0 0 14 16" fill="none" xmlns="http://www.w3.org/2000/svg">
    <path d="M13.44 3.5817L7.51692 0.141512C7.35866 0.0486893 7.18081 0 7 0C6.81919 0 6.64134 0.0486893 6.48308 0.141512L0.56 3.58313C0.390848 3.68137 0.249646 3.82602 0.151141 4.00197C0.0526347 4.17792 0.000437673 4.37872 0 4.58339V11.4166C0.000437673 11.6213 0.0526347 11.8221 0.151141 11.998C0.249646 12.174 0.390848 12.3186 0.56 12.4169L6.48308 15.8585C6.64134 15.9513 6.81919 16 7 16C7.18081 16 7.35866 15.9513 7.51692 15.8585L13.44 12.4169C13.6092 12.3186 13.7504 12.174 13.8489 11.998C13.9474 11.8221 13.9996 11.6213 14 11.4166V4.5841C13.9999 4.37907 13.9479 4.17782 13.8494 4.00146C13.7508 3.8251 13.6095 3.68012 13.44 3.5817ZM7 1.14177L12.4075 4.28546L10.4038 5.45005L4.99558 2.30637L7 1.14177ZM7 7.42914L1.5925 4.28546L3.87423 2.95939L9.28173 6.10308L7 7.42914ZM1.07692 5.28572L6.46154 8.41368V14.5431L1.07692 11.4173V5.28572ZM12.9231 11.4145L7.53846 14.5431V8.41654L9.69231 7.1655V9.71545C9.69231 9.86704 9.74904 10.0124 9.85002 10.1196C9.951 10.2268 10.088 10.287 10.2308 10.287C10.3736 10.287 10.5105 10.2268 10.6115 10.1196C10.7125 10.0124 10.7692 9.86704 10.7692 9.71545V6.53962L12.9231 5.28572V11.4138V11.4145Z" fill="#1A1A1A"/>
</svg>
