<svg width="13" height="16" viewBox="0 0 13 16" fill="none" xmlns="http://www.w3.org/2000/svg">
    <path d="M10.0455 15.4286C10.0455 15.5802 9.9832 15.7255 9.87239 15.8327C9.76157 15.9398 9.61127 16 9.45456 16H3.54552C3.3888 16 3.2385 15.9398 3.12769 15.8327C3.01687 15.7255 2.95462 15.5802 2.95462 15.4286C2.95462 15.2771 3.01687 15.1318 3.12769 15.0246C3.2385 14.9175 3.3888 14.8573 3.54552 14.8573H9.45456C9.61127 14.8573 9.76157 14.9175 9.87239 15.0246C9.9832 15.1318 10.0455 15.2771 10.0455 15.4286ZM13 6.28682C13.0025 7.23931 12.78 8.17978 12.3494 9.03644C11.9187 9.89311 11.2914 10.6433 10.5152 11.2298C10.3701 11.3374 10.2523 11.4756 10.1709 11.6339C10.0895 11.7923 10.0466 11.9665 10.0455 12.1433V12.5718C10.0455 12.8749 9.92095 13.1655 9.69932 13.3798C9.47768 13.5942 9.17709 13.7145 8.86365 13.7145H4.13642C3.82299 13.7145 3.52239 13.5942 3.30076 13.3798C3.07913 13.1655 2.95462 12.8749 2.95462 12.5718V12.1433C2.95449 11.9686 2.91295 11.7963 2.83318 11.6395C2.75341 11.4828 2.63753 11.3458 2.49445 11.2391C1.72022 10.6561 1.0933 9.91037 0.661154 9.05844C0.229006 8.20652 0.00294992 7.2707 9.66493e-05 6.32182C-0.0191077 2.91792 2.82609 0.0832435 6.34345 0.00182421C7.21012 -0.0183701 8.07221 0.129276 8.87898 0.436073C9.68575 0.74287 10.4209 1.20262 11.0412 1.78826C11.6614 2.3739 12.1543 3.07359 12.4907 3.84616C12.8271 4.61873 13.0002 5.44857 13 6.28682ZM11.8182 6.28682C11.8184 5.60094 11.6767 4.92196 11.4014 4.28983C11.1262 3.6577 10.7229 3.0852 10.2154 2.60604C9.70784 2.12687 9.1063 1.75072 8.44617 1.49973C7.78604 1.24874 7.08064 1.12798 6.37152 1.14455C3.49086 1.21026 1.16639 3.52928 1.1819 6.31468C1.1846 7.09072 1.36981 7.85601 1.72351 8.55263C2.0772 9.24926 2.59013 9.85897 3.22348 10.3356C3.50818 10.5496 3.73846 10.8238 3.8967 11.1371C4.05494 11.4504 4.13694 11.7946 4.13642 12.1433V12.5718H8.86365V12.1433C8.86447 11.7936 8.94788 11.4487 9.1075 11.135C9.26713 10.8212 9.49876 10.5468 9.78472 10.3328C10.42 9.85272 10.9335 9.23865 11.2859 8.53744C11.6383 7.83624 11.8204 7.06644 11.8182 6.28682ZM10.6282 5.61976C10.475 4.7922 10.0633 4.02991 9.44838 3.4355C8.83352 2.8411 8.04507 2.44311 7.18918 2.29513C7.11265 2.28266 7.03432 2.28488 6.95868 2.30168C6.88304 2.31847 6.81156 2.34951 6.74832 2.39301C6.68508 2.43652 6.63132 2.49164 6.59012 2.55524C6.54891 2.61883 6.52106 2.68965 6.50816 2.76365C6.49526 2.83765 6.49756 2.91339 6.51493 2.98653C6.5323 3.05967 6.5644 3.12879 6.60939 3.18993C6.65438 3.25108 6.71139 3.30306 6.77716 3.3429C6.84293 3.38275 6.91617 3.40967 6.9927 3.42215C8.21661 3.62141 9.25513 4.62558 9.46268 5.81116C9.48606 5.94423 9.55741 6.065 9.66409 6.15207C9.77076 6.23914 9.90586 6.28687 10.0455 6.28682C10.0789 6.28663 10.1122 6.284 10.1452 6.27897C10.2996 6.25347 10.4373 6.1697 10.5279 6.04608C10.6185 5.92246 10.6546 5.76911 10.6282 5.61976Z" fill="#1A1A1A"/>
</svg>
