<svg width="18" height="19" viewBox="0 0 18 19" fill="none" xmlns="http://www.w3.org/2000/svg">
    <path d="M15.3943 2.60062C14.5661 1.78072 13.5811 1.12899 12.4956 0.682733C11.4101 0.236479 10.2454 0.00447376 9.06833 0H8.99997C6.61303 0 4.32385 0.929398 2.63603 2.58374C0.948208 4.23808 0 6.48184 0 8.82143V13.5714C0 14.1113 0.218817 14.6291 0.608315 15.0109C0.997812 15.3927 1.52608 15.6071 2.07692 15.6071H3.46153C4.01236 15.6071 4.54063 15.3927 4.93013 15.0109C5.31962 14.6291 5.53844 14.1113 5.53844 13.5714V10.1786C5.53844 9.63867 5.31962 9.12087 4.93013 8.7391C4.54063 8.35733 4.01236 8.14286 3.46153 8.14286H1.41576C1.54928 6.72798 2.09148 5.37972 2.97884 4.25609C3.86619 3.13246 5.06192 2.28003 6.42589 1.79869C7.78985 1.31736 9.26554 1.22707 10.68 1.53841C12.0944 1.84975 13.389 2.54982 14.4121 3.55656C15.6624 4.78842 16.4315 6.4117 16.585 8.14286H14.5384C13.9876 8.14286 13.4593 8.35733 13.0698 8.7391C12.6803 9.12087 12.4615 9.63867 12.4615 10.1786V13.5714C12.4615 14.1113 12.6803 14.6291 13.0698 15.0109C13.4593 15.3927 13.9876 15.6071 14.5384 15.6071H16.6153C16.6153 16.147 16.3965 16.6648 16.007 17.0466C15.6175 17.4284 15.0892 17.6429 14.5384 17.6429H9.69227C9.50866 17.6429 9.33257 17.7143 9.20274 17.8416C9.07291 17.9689 8.99997 18.1415 8.99997 18.3214C8.99997 18.5014 9.07291 18.674 9.20274 18.8013C9.33257 18.9285 9.50866 19 9.69227 19H14.5384C15.4565 19 16.3369 18.6425 16.9861 18.0063C17.6352 17.37 17.9999 16.507 17.9999 15.6071V8.82143C18.0044 7.6675 17.7766 6.52403 17.3295 5.45655C16.8823 4.38907 16.2247 3.41856 15.3943 2.60062ZM3.46153 9.5C3.64514 9.5 3.82123 9.57149 3.95106 9.69875C4.08089 9.826 4.15383 9.9986 4.15383 10.1786V13.5714C4.15383 13.7514 4.08089 13.924 3.95106 14.0513C3.82123 14.1785 3.64514 14.25 3.46153 14.25H2.07692C1.8933 14.25 1.71721 14.1785 1.58738 14.0513C1.45755 13.924 1.38461 13.7514 1.38461 13.5714V9.5H3.46153ZM14.5384 14.25C14.3548 14.25 14.1787 14.1785 14.0489 14.0513C13.919 13.924 13.8461 13.7514 13.8461 13.5714V10.1786C13.8461 9.9986 13.919 9.826 14.0489 9.69875C14.1787 9.57149 14.3548 9.5 14.5384 9.5H16.6153V14.25H14.5384Z" fill="#9D9D9D"/>
</svg>
