<svg width="85" height="84" viewBox="0 0 85 84" fill="none" xmlns="http://www.w3.org/2000/svg">
    <g opacity="1">
        <path d="M49.3424 56.7477C53.4666 54.463 56.6387 51.0009 58.516 46.7357C60.8177 41.5063 60.8754 35.7224 58.6784 30.4494C56.4818 25.1775 52.3013 21.0734 46.913 18.9007C41.692 16.7936 35.9076 16.7747 30.6255 18.8473C25.3436 20.9199 21.1801 24.8421 18.9019 29.8913C16.9489 34.2198 16.5354 38.9263 17.7059 43.5019C19.6061 50.93 18.9922 58.7937 15.9768 65.6446L12.6775 73.1408C11.214 76.4659 12.793 80.3338 16.1975 81.7632L21.9405 84.1744C25.345 85.6038 29.3055 84.0613 30.7689 80.7364L34.068 73.2407C37.1169 66.3142 42.3818 60.6038 49.3424 56.7477ZM20.393 42.8463C19.3729 38.8587 19.7337 34.7562 21.4363 30.9822C25.5271 21.916 36.4812 17.6177 45.8552 21.4008C50.5563 23.3019 54.198 26.8734 56.1127 31.4692C58.0282 36.0662 57.9779 41.1086 55.9713 45.6675C54.3347 49.3858 51.57 52.4037 47.9758 54.3949C40.6416 58.458 35.0258 64.4328 31.7069 71.6956L18.7234 66.2445C21.8015 58.9646 22.3963 50.6769 20.393 42.8463ZM15.5927 73.3669L16.0355 72.3609L28.3976 79.2748L28.2245 79.6681C28.1333 79.8752 28.0224 80.0678 27.9006 80.2504L15.5927 73.3669ZM17.1365 69.8594L17.6331 68.7313L30.6355 74.1903L29.4986 76.7733L17.1365 69.8594ZM17.2913 79.2781C15.9245 78.7043 15.0595 77.4617 14.9216 76.1088L25.3353 81.933C24.5857 82.0739 23.7871 82.0051 23.0346 81.6892L17.2914 79.2779L17.2913 79.2781Z" fill="#1DB33B"/>
        <path d="M25.265 34.9901C25.452 34.2981 25.6987 33.6102 25.9985 32.9458C26.307 32.2622 25.9897 31.4639 25.2898 31.1626C24.5946 30.8637 23.7726 31.1713 23.4641 31.8548C23.1059 32.6486 22.8107 33.4713 22.5868 34.3001C22.4096 34.9563 22.7575 35.627 23.3773 35.8873C23.4398 35.9135 23.505 35.9356 23.5727 35.953C24.3122 36.1434 25.0699 35.7124 25.265 34.9901Z" fill="#1DB33B"/>
        <path d="M24.4447 57.0087C24.5764 57.064 24.7193 57.1 24.8699 57.1132C25.6318 57.1791 26.3041 56.6292 26.3715 55.8853C26.8047 51.1053 26.4206 46.3211 25.2295 41.666C25.0328 40.8965 24.9041 40.1109 24.8473 39.3307C24.793 38.5855 24.1304 38.0246 23.3674 38.0777C22.6046 38.1308 22.0302 38.7778 22.0845 39.523C22.1528 40.459 22.3068 41.4006 22.5425 42.3218C23.6586 46.6842 24.0186 51.1673 23.6126 55.6466C23.5585 56.2436 23.91 56.7842 24.4447 57.0087Z" fill="#1DB33B"/>
        <path d="M50.1649 48.271C49.6391 47.7285 48.7624 47.7051 48.2071 48.2187C47.4017 48.9637 46.4962 49.6167 45.516 50.1596C44.8508 50.5281 44.6174 51.3537 44.9947 52.0034C45.1496 52.2703 45.3835 52.4658 45.6514 52.5783C46.0359 52.7398 46.4905 52.7298 46.8827 52.5124C48.0572 51.8617 49.1434 51.078 50.1113 50.1831C50.6668 49.6695 50.6909 48.8134 50.1649 48.271Z" fill="#1DB33B"/>
        <path d="M44.138 25.978C51.153 28.9233 54.4066 36.8934 51.3911 43.7448C51.2197 44.1343 51.0286 44.5191 50.8232 44.8885C50.4583 45.545 50.7071 46.366 51.3792 46.7226C51.4172 46.7426 51.4556 46.7609 51.4946 46.7773C52.1449 47.0503 52.9127 46.7989 53.2571 46.1795C53.5026 45.7378 53.731 45.2782 53.9357 44.8131C57.5544 36.5914 53.6499 27.0271 45.2319 23.4928C44.5292 23.1978 43.7147 23.515 43.4127 24.2012C43.1106 24.8875 43.4354 25.683 44.138 25.978Z" fill="#1DB33B"/>
        <path d="M48.1442 16.8757C48.8469 17.1707 49.6614 16.8535 49.9634 16.1673L53.0262 9.20855C53.3283 8.52229 53.0035 7.72676 52.3009 7.43176C51.5982 7.13675 50.7837 7.45395 50.4816 8.14021L47.4188 15.0989C47.1168 15.7852 47.4416 16.5807 48.1442 16.8757Z" fill="#1DB33B"/>
        <path d="M34.192 13.927C34.2523 14.4248 34.5817 14.8271 35.0214 15.0117C35.2372 15.1023 35.4796 15.1405 35.7297 15.1117C36.4892 15.024 37.0324 14.3516 36.9427 13.6098L36.0334 6.09058C35.9436 5.34854 35.2552 4.81828 34.4957 4.90594C33.7362 4.99359 33.193 5.66598 33.2828 6.40778L34.192 13.927Z" fill="#1DB33B"/>
        <path d="M59.647 63.9322L55.0095 57.8648C54.552 57.266 53.6841 57.1431 53.0713 57.5901C52.4584 58.0369 52.3324 58.8844 52.7901 59.4831L57.4275 65.5505C57.5781 65.7476 57.7731 65.8931 57.9891 65.9837C58.4288 66.1683 58.9546 66.1249 59.3657 65.8252C59.9786 65.3784 60.1045 64.5308 59.647 63.9322Z" fill="#1DB33B"/>
        <path d="M17.5004 13.3078L22.1378 19.3752C22.2884 19.5723 22.4835 19.7178 22.6994 19.8084C23.1391 19.993 23.665 19.9496 24.076 19.6499C24.6889 19.2031 24.815 18.3556 24.3573 17.7569L19.7199 11.6895C19.2625 11.0907 18.3946 10.9678 17.7817 11.4148C17.1688 11.8616 17.0428 12.709 17.5004 13.3078Z" fill="#1DB33B"/>
        <path d="M69.7812 50.25L62.6563 47.2587C61.9537 46.9637 61.1392 47.2809 60.8371 47.9671C60.5351 48.6534 60.8598 49.4489 61.5625 49.7439L68.6874 52.7353C69.39 53.0303 70.2045 52.7131 70.5066 52.0268C70.8086 51.3406 70.484 50.5451 69.7812 50.25Z" fill="#1DB33B"/>
        <path d="M16.3102 29.2725C16.6122 28.5863 16.2875 27.7908 15.5848 27.4958L8.45992 24.5044C7.75727 24.2094 6.94274 24.5266 6.64069 25.2128C6.33864 25.8991 6.66342 26.6946 7.36606 26.9896L14.4909 29.981C15.1938 30.2761 16.0081 29.9588 16.3102 29.2725Z" fill="#1DB33B"/>
        <path d="M63.4727 36.927C63.6885 37.0176 63.931 37.0558 64.1811 37.0269L71.8798 36.1388C72.6394 36.0512 73.1825 35.3788 73.0928 34.637C73.003 33.8952 72.3144 33.3646 71.5551 33.4524L63.8563 34.3404C63.0968 34.428 62.5536 35.1004 62.6434 35.8422C62.7035 36.3398 63.0332 36.7424 63.4727 36.927Z" fill="#1DB33B"/>
        <path d="M12.9662 40.2131L5.26741 41.1012C4.50788 41.1888 3.96472 41.8612 4.05447 42.603C4.11465 43.1006 4.44415 43.5031 4.88386 43.6877C5.09964 43.7783 5.34211 43.8165 5.59218 43.7877L13.291 42.8996C14.0505 42.812 14.5936 42.1396 14.5039 41.3978C14.4144 40.6559 13.7254 40.1253 12.9662 40.2131Z" fill="#1DB33B"/>
        <path d="M57.9968 24.4604C58.1474 24.6575 58.3425 24.803 58.5584 24.8937C58.9981 25.0783 59.5239 25.0348 59.935 24.7351L66.1473 20.2058C66.7602 19.759 66.886 18.9114 66.4286 18.3128C65.9713 17.7143 65.1033 17.5911 64.4903 18.0381L58.2781 22.5674C57.6652 23.0142 57.5393 23.8618 57.9968 24.4604Z" fill="#1DB33B"/>
    </g>
</svg>