<svg width="13" height="16" viewBox="0 0 13 16" fill="none" xmlns="http://www.w3.org/2000/svg">
<path d="M11.8182 14.8571H8.16489C8.77858 14.3272 9.35733 13.7606 9.89773 13.1607C11.9253 10.9057 13 8.52857 13 6.28571C13 4.61864 12.3152 3.01984 11.0962 1.84104C9.87721 0.662243 8.22391 0 6.5 0C4.77609 0 3.12279 0.662243 1.90381 1.84104C0.68482 3.01984 0 4.61864 0 6.28571C0 8.52857 1.07176 10.9057 3.10227 13.1607C3.64267 13.7606 4.22141 14.3272 4.83511 14.8571H1.18182C1.0251 14.8571 0.874799 14.9173 0.763982 15.0245C0.653166 15.1317 0.590909 15.277 0.590909 15.4286C0.590909 15.5801 0.653166 15.7255 0.763982 15.8326C0.874799 15.9398 1.0251 16 1.18182 16H11.8182C11.9749 16 12.1252 15.9398 12.236 15.8326C12.3468 15.7255 12.4091 15.5801 12.4091 15.4286C12.4091 15.277 12.3468 15.1317 12.236 15.0245C12.1252 14.9173 11.9749 14.8571 11.8182 14.8571ZM1.18182 6.28571C1.18182 4.92174 1.74212 3.61364 2.73948 2.64917C3.73683 1.68469 5.08953 1.14286 6.5 1.14286C7.91047 1.14286 9.26317 1.68469 10.2605 2.64917C11.2579 3.61364 11.8182 4.92174 11.8182 6.28571C11.8182 10.3736 7.72097 13.7857 6.5 14.7143C5.27903 13.7857 1.18182 10.3736 1.18182 6.28571ZM9.45455 6.28571C9.45455 5.72062 9.28126 5.16823 8.95661 4.69837C8.63196 4.22852 8.17053 3.86231 7.63066 3.64606C7.09078 3.42981 6.49672 3.37323 5.9236 3.48347C5.35047 3.59371 4.82402 3.86583 4.41082 4.26541C3.99762 4.66499 3.71623 5.17408 3.60222 5.72831C3.48822 6.28255 3.54673 6.85702 3.77036 7.3791C3.99398 7.90117 4.37267 8.3474 4.85854 8.66134C5.34441 8.97529 5.91565 9.14286 6.5 9.14286C7.28359 9.14286 8.03509 8.84184 8.58918 8.30602C9.14326 7.7702 9.45455 7.04348 9.45455 6.28571ZM4.72727 6.28571C4.72727 5.94666 4.83124 5.61522 5.02603 5.33331C5.22082 5.0514 5.49768 4.83167 5.82161 4.70192C6.14553 4.57217 6.50197 4.53822 6.84584 4.60437C7.18972 4.67051 7.50559 4.83378 7.75351 5.07353C8.00143 5.31328 8.17026 5.61874 8.23866 5.95127C8.30707 6.28381 8.27196 6.6285 8.13779 6.94174C8.00361 7.25499 7.7764 7.52272 7.48487 7.71109C7.19335 7.89946 6.85061 8 6.5 8C6.02984 8 5.57894 7.81939 5.24649 7.4979C4.91404 7.17641 4.72727 6.74037 4.72727 6.28571Z" fill="#1A1A1A"/>
</svg>

