<svg width="14" height="14" viewBox="0 0 14 14" fill="none" xmlns="http://www.w3.org/2000/svg">
<g clip-path="url(#clip0_86_535)">
<path d="M5.8916 1.27325C6.6237 1.13157 7.37617 1.13157 8.10827 1.27325" stroke="black" stroke-width="1.16667" stroke-linecap="round" stroke-linejoin="round"/>
<path d="M8.10827 12.7275C7.37617 12.8692 6.6237 12.8692 5.8916 12.7275" stroke="black" stroke-width="1.16667" stroke-linecap="round" stroke-linejoin="round"/>
<path d="M10.272 2.16992C10.8912 2.58947 11.4239 3.12418 11.8411 3.74492" stroke="black" stroke-width="1.16667" stroke-linecap="round" stroke-linejoin="round"/>
<path d="M1.27276 8.10827C1.13108 7.37617 1.13108 6.6237 1.27276 5.8916" stroke="black" stroke-width="1.16667" stroke-linecap="round" stroke-linejoin="round"/>
<path d="M11.8294 10.2725C11.4098 10.8917 10.8751 11.4244 10.2544 11.8416" stroke="black" stroke-width="1.16667" stroke-linecap="round" stroke-linejoin="round"/>
<path d="M12.7271 5.8916C12.8687 6.6237 12.8687 7.37617 12.7271 8.10827" stroke="black" stroke-width="1.16667" stroke-linecap="round" stroke-linejoin="round"/>
<path d="M2.1709 3.72835C2.59045 3.10916 3.12516 2.57643 3.7459 2.15918" stroke="black" stroke-width="1.16667" stroke-linecap="round" stroke-linejoin="round"/>
<path d="M3.72835 11.8299C3.10916 11.4103 2.57643 10.8756 2.15918 10.2549" stroke="black" stroke-width="1.16667" stroke-linecap="round" stroke-linejoin="round"/>
</g>
<defs>
<clipPath id="clip0_86_535">
<rect width="14" height="14" fill="white"/>
</clipPath>
</defs>
</svg>
