<svg width="20" height="20" viewBox="0 0 20 20" fill="none" xmlns="http://www.w3.org/2000/svg">
<g clip-path="url(#clip0_91_332)">
<path d="M9.99984 18.3327C14.6022 18.3327 18.3332 14.6017 18.3332 9.99935C18.3332 5.39698 14.6022 1.66602 9.99984 1.66602C5.39746 1.66602 1.6665 5.39698 1.6665 9.99935C1.6665 14.6017 5.39746 18.3327 9.99984 18.3327Z" stroke="black" stroke-opacity="0.65" stroke-width="1.66667" stroke-linecap="round" stroke-linejoin="round"/>
<path d="M7.57471 7.50047C7.77063 6.94353 8.15733 6.4739 8.66634 6.17475C9.17534 5.87561 9.77379 5.76626 10.3557 5.86607C10.9376 5.96588 11.4654 6.26841 11.8456 6.72008C12.2258 7.17175 12.4339 7.74341 12.433 8.33381C12.433 10.0005 9.93304 10.8338 9.93304 10.8338" stroke="black" stroke-opacity="0.65" stroke-width="1.66667" stroke-linecap="round" stroke-linejoin="round"/>
<path d="M10 14.166H10.0083" stroke="black" stroke-opacity="0.65" stroke-width="1.66667" stroke-linecap="round" stroke-linejoin="round"/>
</g>
<defs>
<clipPath id="clip0_91_332">
<rect width="20" height="20" fill="white"/>
</clipPath>
</defs>
</svg>
