<svg width="15" height="13" viewBox="0 0 15 13" fill="none" xmlns="http://www.w3.org/2000/svg">
    <path d="M7.50063 3.50057C6.86495 3.50057 6.24355 3.67648 5.715 4.00605C5.18645 4.33563 4.7745 4.80407 4.53124 5.35213C4.28797 5.9002 4.22432 6.50328 4.34834 7.0851C4.47235 7.66692 4.77846 8.20136 5.22795 8.62083C5.67745 9.0403 6.25014 9.32596 6.8736 9.4417C7.49707 9.55743 8.14331 9.49803 8.7306 9.27101C9.31789 9.044 9.81986 8.65956 10.173 8.16632C10.5262 7.67307 10.7147 7.09317 10.7147 6.49995C10.7138 5.70472 10.3749 4.94229 9.77234 4.37998C9.16978 3.81767 8.35278 3.50139 7.50063 3.50057ZM7.50063 8.49953C7.07685 8.49953 6.66258 8.38226 6.31021 8.16254C5.95785 7.94283 5.68321 7.63053 5.52103 7.26516C5.35886 6.89978 5.31643 6.49773 5.3991 6.10985C5.48178 5.72197 5.68585 5.36567 5.98551 5.08603C6.28518 4.80638 6.66697 4.61594 7.08261 4.53878C7.49826 4.46163 7.92908 4.50123 8.32061 4.65257C8.71214 4.80391 9.04678 5.06021 9.28223 5.38904C9.51767 5.71787 9.64334 6.10447 9.64334 6.49995C9.64334 7.03027 9.41759 7.53887 9.01575 7.91387C8.61392 8.28886 8.06891 8.49953 7.50063 8.49953ZM14.8622 5.20084C14.8472 5.13045 14.8163 5.06387 14.7713 5.00565C14.7264 4.94742 14.6685 4.89891 14.6017 4.86341L12.6043 3.80113L12.5963 1.70031C12.596 1.62796 12.5789 1.55652 12.5462 1.49093C12.5135 1.42533 12.4659 1.36715 12.4068 1.32039C11.6822 0.748447 10.8478 0.310142 9.948 0.0287842C9.87714 0.00640122 9.80204 -0.00188213 9.72754 0.00446766C9.65304 0.0108175 9.58079 0.0316596 9.51544 0.0656516L7.50063 1.11668L5.48381 0.0637769C5.41843 0.0295935 5.34609 0.00859399 5.27146 0.00213582C5.19684 -0.00432236 5.12159 0.00390451 5.05059 0.0262847C4.15142 0.3097 3.31801 0.749676 2.59451 1.32289C2.53543 1.36958 2.4879 1.42766 2.45519 1.49314C2.42247 1.55862 2.40536 1.62994 2.40502 1.70219L2.39497 3.80488L0.397574 4.86716C0.330749 4.90266 0.272898 4.95117 0.227953 5.0094C0.183008 5.06762 0.152022 5.1342 0.137101 5.20459C-0.0457005 6.06184 -0.0457005 6.9443 0.137101 7.80155C0.152022 7.87195 0.183008 7.93852 0.227953 7.99675C0.272898 8.05497 0.330749 8.10348 0.397574 8.13898L2.39497 9.20127L2.40301 11.3021C2.40325 11.3744 2.42032 11.4459 2.45304 11.5115C2.48576 11.5771 2.53334 11.6352 2.59251 11.682C3.31705 12.2539 4.15143 12.6923 5.05126 12.9736C5.12212 12.996 5.19722 13.0043 5.27172 12.9979C5.34622 12.9916 5.41847 12.9707 5.48381 12.9367L7.50063 11.8832L9.51745 12.9361C9.59727 12.9776 9.68723 12.9991 9.7786 12.9986C9.8371 12.9986 9.89521 12.9897 9.95068 12.9724C10.8497 12.6893 11.6832 12.2498 12.4068 11.677C12.4658 11.6303 12.5134 11.5722 12.5461 11.5068C12.5788 11.4413 12.5959 11.37 12.5963 11.2977L12.6063 9.19502L14.6037 8.13274C14.6705 8.09723 14.7284 8.04872 14.7733 7.9905C14.8183 7.93227 14.8492 7.8657 14.8642 7.79531C15.046 6.93874 15.0453 6.05716 14.8622 5.20084ZM13.8578 7.38227L11.9447 8.39768C11.8609 8.44216 11.7915 8.50692 11.7439 8.58514C11.705 8.64763 11.6642 8.71387 11.6227 8.77635C11.5695 8.85515 11.5412 8.94632 11.541 9.03942L11.5309 11.0546C11.0167 11.4315 10.4439 11.7328 9.83216 11.9482L7.90239 10.9447C7.82228 10.9033 7.73214 10.8818 7.64058 10.8822H7.62786C7.54684 10.8822 7.46515 10.8822 7.38412 10.8822C7.2883 10.8799 7.19355 10.9015 7.10959 10.9447L5.17848 11.9507C4.56547 11.7369 3.99104 11.4371 3.47503 11.0615L3.46767 9.04942C3.46733 8.95613 3.43904 8.86479 3.38598 8.78573C3.34446 8.72324 3.30361 8.66075 3.26545 8.59452C3.21812 8.51509 3.14873 8.44903 3.06457 8.40331L1.14953 7.38539C1.05043 6.80039 1.05043 6.2045 1.14953 5.6195L3.05921 4.60221C3.14303 4.55774 3.21243 4.49297 3.26009 4.41475C3.29893 4.35227 3.33977 4.28603 3.38129 4.22354C3.43443 4.14474 3.46274 4.05358 3.46298 3.96047L3.47302 1.94526C3.98722 1.56843 4.56008 1.2671 5.17178 1.0517L7.09888 2.05524C7.18275 2.09863 7.27756 2.12021 7.37341 2.11773C7.45443 2.11773 7.53612 2.11773 7.61714 2.11773C7.71297 2.11996 7.80771 2.0984 7.89168 2.05524L9.82279 1.0492C10.4358 1.26295 11.0102 1.5628 11.5262 1.93839L11.5336 3.95047C11.5339 4.04376 11.5622 4.13511 11.6153 4.21417C11.6568 4.27666 11.6977 4.33914 11.7358 4.40538C11.7831 4.48481 11.8525 4.55086 11.9367 4.59659L13.8517 5.61451C13.9522 6.19995 13.9533 6.79649 13.8551 7.38227H13.8578Z" fill="#1A1A1A"/>
</svg>
