<svg width="17" height="20" viewBox="0 0 17 20" fill="none" xmlns="http://www.w3.org/2000/svg">
<path d="M12.4644 11.0866C13.1584 10.2059 13.5353 9.15469 13.5542 8.04657C13.5775 6.68793 13.0577 5.41431 12.0904 4.46029C11.1234 3.50649 9.82885 2.99141 8.44726 3.01104C7.10839 3.02968 5.83823 3.55806 4.87077 4.49886C3.90335 5.43962 3.35146 6.68302 3.31674 7.99995C3.28699 9.12895 3.62961 10.1991 4.30755 11.0947C5.40811 12.5486 5.99746 14.3295 5.96697 16.1094L5.93362 18.0569C5.91882 18.9208 6.6212 19.6236 7.49934 19.6236H8.98067C9.85882 19.6236 10.5853 18.9207 10.6001 18.0569L10.6334 16.1095C10.6643 14.3099 11.2931 12.573 12.4644 11.0866ZM4.83644 10.7035C4.24562 9.92301 3.94703 8.99017 3.97294 8.00585C4.03528 5.64115 6.04163 3.69012 8.44548 3.65668C9.65137 3.64075 10.7787 4.08864 11.6217 4.92014C12.465 5.75182 12.9182 6.86218 12.8979 8.04662C12.8814 9.01264 12.5529 9.92895 11.9481 10.6965C10.7139 12.2627 10.0325 14.0899 9.97342 15.9881H6.62448C6.62924 14.1083 5.99664 12.2362 4.83644 10.7035ZM6.59371 17.8381L6.59819 17.5767L9.94551 17.9547L9.94376 18.0569C9.94284 18.1107 9.93625 18.1631 9.92636 18.2144L6.59371 17.8381ZM6.60932 16.9268L6.61434 16.6337H9.96814L9.95664 17.3048L6.60932 16.9268ZM7.5104 18.9779C7.15786 18.9779 6.85377 18.7851 6.69897 18.5011L9.51873 18.8195C9.36733 18.9194 9.18588 18.9779 8.99178 18.9779H7.5104L7.5104 18.9779Z" fill="#565ADD"/>
<path d="M5.18142 8.53227C5.15871 8.36331 5.14948 8.18975 5.15407 8.01645C5.15878 7.83816 5.0157 7.69232 4.83449 7.69069C4.6545 7.68914 4.50258 7.83226 4.49786 8.01056C4.49239 8.2176 4.50341 8.42517 4.53062 8.62753C4.55216 8.78774 4.69021 8.9028 4.85009 8.9028C4.86619 8.9028 4.88254 8.90164 4.89899 8.89923C5.07866 8.87288 5.20513 8.70862 5.18142 8.53227Z" fill="#565ADD"/>
<path d="M7.02873 13.4361C7.06268 13.4361 7.09734 13.4309 7.13157 13.4199C7.3047 13.3642 7.40151 13.1817 7.34779 13.0124C7.00272 11.9243 6.47803 10.9106 5.78828 9.99944C5.6743 9.84883 5.57373 9.6884 5.48946 9.52254C5.40894 9.36414 5.21201 9.30215 5.04958 9.38402C4.8872 9.4659 4.82081 9.66068 4.90132 9.81908C5.00249 10.018 5.12294 10.2103 5.25944 10.3906C5.9058 11.2445 6.3975 12.1944 6.72085 13.214C6.76394 13.3499 6.89081 13.4361 7.02873 13.4361Z" fill="#565ADD"/>
<path d="M11.8643 9.15191C11.699 9.08136 11.5046 9.15695 11.4302 9.32069C11.3221 9.55822 11.1837 9.78477 11.0187 9.99405C10.9068 10.1361 10.9316 10.3386 11.0742 10.4464C11.1327 10.4906 11.202 10.512 11.2711 10.512C11.3703 10.512 11.4691 10.4679 11.535 10.3842C11.7327 10.1333 11.8987 9.86147 12.0286 9.57613C12.1031 9.41238 12.0296 9.22242 11.8643 9.15191Z" fill="#565ADD"/>
<path d="M8.49033 4.81829C10.2997 4.81829 11.747 6.26646 11.7165 8.04648C11.7148 8.14768 11.7083 8.24965 11.6973 8.34956C11.6777 8.52712 11.8078 8.68424 11.9881 8.70055C11.9982 8.70146 12.0083 8.70193 12.0184 8.70193C12.1861 8.70193 12.3314 8.57611 12.3499 8.40857C12.363 8.28912 12.3708 8.1673 12.3729 8.04648C12.4094 5.91044 10.6727 4.17261 8.50139 4.17261C8.32015 4.17261 8.17074 4.31715 8.16769 4.49545C8.16463 4.67374 8.30909 4.81829 8.49033 4.81829Z" fill="#565ADD"/>
<path d="M8.53078 2.45359C8.71202 2.45359 8.86143 2.30904 8.86448 2.13075L8.89545 0.32284C8.8985 0.144546 8.75404 0 8.5728 0C8.39156 0 8.24215 0.144546 8.2391 0.32284L8.20814 2.13075C8.20508 2.30904 8.34954 2.45359 8.53078 2.45359Z" fill="#565ADD"/>
<path d="M5.19982 3.09143C5.25886 3.19504 5.36814 3.25293 5.48155 3.25293C5.53721 3.25293 5.5939 3.23899 5.64608 3.20963C5.80456 3.12048 5.86176 2.92303 5.77378 2.76863L4.88214 1.2035C4.79413 1.04905 4.59436 0.996149 4.43588 1.0853C4.2774 1.17444 4.2202 1.37189 4.30818 1.5263L5.19982 3.09143Z" fill="#565ADD"/>
<path d="M15.3854 11.7132L13.8099 10.8097C13.6545 10.7205 13.4528 10.7734 13.3596 10.9279C13.2663 11.0823 13.3167 11.2797 13.4722 11.3689L15.0477 12.2724C15.0989 12.3018 15.1551 12.3157 15.2108 12.3157C15.3242 12.3157 15.4355 12.2578 15.498 12.1542C15.5913 11.9998 15.5409 11.8023 15.3854 11.7132Z" fill="#565ADD"/>
<path d="M1.48259 4.49242L3.0581 5.39594C3.10927 5.4253 3.16544 5.43924 3.22114 5.43924C3.33455 5.43924 3.44586 5.3813 3.50841 5.27774C3.60167 5.12333 3.55128 4.92588 3.3958 4.83674L1.8203 3.93322C1.66487 3.84403 1.46325 3.89697 1.36999 4.05142C1.27672 4.20582 1.32712 4.40323 1.48259 4.49242Z" fill="#565ADD"/>
<path d="M16.3481 7.78003H14.5103C14.3291 7.78003 14.1797 7.92458 14.1766 8.10287C14.1735 8.28116 14.318 8.42571 14.4992 8.42571H16.337C16.5183 8.42571 16.6677 8.28116 16.6707 8.10287C16.6738 7.92458 16.5294 7.78003 16.3481 7.78003Z" fill="#565ADD"/>
<path d="M2.69147 8.10287C2.69452 7.92458 2.55006 7.78003 2.36882 7.78003H0.531054C0.349815 7.78003 0.200405 7.92458 0.197352 8.10287C0.194298 8.28116 0.338756 8.42571 0.519995 8.42571H2.35776C2.53905 8.42571 2.68841 8.28116 2.69147 8.10287Z" fill="#565ADD"/>
<path d="M13.7381 5.43922C13.7938 5.43922 13.8505 5.42527 13.9027 5.39591L15.5091 4.49239C15.6676 4.40324 15.7248 4.20579 15.6368 4.05139C15.5488 3.89699 15.349 3.84404 15.1906 3.93319L13.5841 4.83671C13.4256 4.92586 13.3684 5.12331 13.4564 5.27771C13.5154 5.38128 13.6248 5.43922 13.7381 5.43922Z" fill="#565ADD"/>
<path d="M2.96534 10.8099L1.35889 11.7134C1.2004 11.8026 1.1432 12 1.23118 12.1544C1.29018 12.258 1.3995 12.3159 1.51292 12.3159C1.56857 12.3159 1.62526 12.302 1.67744 12.2726L3.2839 11.3691C3.44238 11.28 3.49958 11.0825 3.4116 10.9281C3.32367 10.7737 3.12374 10.7208 2.96534 10.8099Z" fill="#565ADD"/>
<path d="M11.3896 3.20963C11.4408 3.23899 11.4969 3.25293 11.5527 3.25293C11.6661 3.25293 11.7774 3.19499 11.8399 3.09143L12.7852 1.5263C12.8784 1.37189 12.828 1.17444 12.6726 1.0853C12.5172 0.996149 12.3155 1.04905 12.2223 1.2035L11.277 2.76863C11.1837 2.92303 11.2342 3.12048 11.3896 3.20963Z" fill="#565ADD"/>
</svg>
