<svg width="154" height="122" viewBox="0 0 154 122" fill="none" xmlns="http://www.w3.org/2000/svg">
<path d="M78.4251 0L78.8219 0.229271L79.233 0.0358232L79.1393 0.480036L79.4567 0.809616L78.995 0.859769L78.7786 1.26099L78.591 0.84544L78.1438 0.759461L78.4828 0.451379L78.4251 0Z" fill="#FFD51A"/>
<path d="M152.904 9.72249L153.352 9.93027L153.777 9.68667L153.712 10.1739L154.087 10.4963L153.597 10.5894L153.402 11.0408L153.164 10.6109L152.674 10.5608L153.005 10.2025L152.904 9.72249Z" fill="#FFD51A"/>
<path d="M139.004 39.4564L138.658 40.0153L138.917 40.6243L138.275 40.4595L137.778 40.9037L137.734 40.2446L137.157 39.9078L137.778 39.6642L137.915 39.0194L138.347 39.5209L139.004 39.4564Z" fill="#FFD51A"/>
<path d="M145.395 63.702L145.604 64.7266L146.57 65.135L145.654 65.6508L145.561 66.6897L144.789 65.9876L143.757 66.2168L144.197 65.2639L143.656 64.3683L144.702 64.4901L145.395 63.702Z" fill="#FFD51A"/>
<path d="M157.283 110.079L158.855 112.945L162.13 113.289L159.865 115.661L160.551 118.863L157.579 117.459L154.729 119.093L155.155 115.847L152.709 113.662L155.948 113.06L157.283 110.079Z" fill="#FFD51A"/>
<path d="M121.929 102.077L123.35 104.262L125.969 104.341L124.31 106.361L125.053 108.854L122.607 107.923L120.443 109.385L120.58 106.784L118.51 105.193L121.042 104.527L121.929 102.077Z" fill="#FFD51A"/>
<path d="M94.5254 115.618L95.2179 118.097L97.6633 118.942L95.4993 120.354L95.4488 122.926L93.4218 121.328L90.9476 122.073L91.8564 119.666L90.3777 117.552L92.9601 117.667L94.5254 115.618Z" fill="#FFD51A"/>
<path d="M11.8374 120.182L14.8238 120.239L16.5694 117.825L17.4423 120.669L20.2916 121.572L17.839 123.27L17.8534 126.243L15.4658 124.452L12.6309 125.384L13.6047 122.575L11.8374 120.182Z" fill="#FFD51A"/>
<path d="M27.3319 86.6723L26.5384 88.4061L27.5267 90.0325L25.6223 89.8247L24.3671 91.2577L23.9776 89.3949L22.2175 88.6497L23.8838 87.7111L24.0498 85.8196L25.4636 87.1021L27.3319 86.6723Z" fill="#FFD51A"/>
<path d="M17.3846 52.7758L18.748 55.3837L21.6766 55.7491L19.5992 57.8412L20.1546 60.7286L17.5145 59.4103L14.9176 60.829L15.3648 57.9201L13.208 55.9139L16.1295 55.4339L17.3846 52.7758Z" fill="#FFD51A"/>
<path d="M6.36224 72.0274L6.77341 72.1206L7.08359 71.834L7.12687 72.2495L7.49476 72.4573L7.10523 72.6221L7.02588 73.0305L6.74455 72.7153L6.32617 72.7726L6.54258 72.4072L6.36224 72.0274Z" fill="#0D0D0D"/>
<path d="M0 6.76348L1.24793 6.40524L1.6591 5.18723L2.38766 6.25478L3.67888 6.26195L2.88539 7.27934L3.26771 8.51168L2.04863 8.06747L0.995461 8.8126L1.03874 7.53011L0 6.76348Z" fill="#FFD51A"/>
<path d="M58.155 7.63051L57.4481 8.82703L58.0396 10.0809L56.6762 9.77994L55.6591 10.7257L55.5221 9.35006L54.303 8.67657L55.5798 8.12488L55.8467 6.76358L56.77 7.79531L58.155 7.63051Z" fill="#FFD51A"/>
</svg>
