<svg width="16" height="16" viewBox="0 0 16 16" fill="none" xmlns="http://www.w3.org/2000/svg">
<path d="M1.3335 5.99967C1.86393 5.99967 2.37264 6.21039 2.74771 6.58546C3.12278 6.96053 3.3335 7.46924 3.3335 7.99967C3.3335 8.53011 3.12278 9.03882 2.74771 9.41389C2.37264 9.78896 1.86393 9.99967 1.3335 9.99967V11.333C1.3335 11.6866 1.47397 12.0258 1.72402 12.2758C1.97407 12.5259 2.31321 12.6663 2.66683 12.6663H13.3335C13.6871 12.6663 14.0263 12.5259 14.2763 12.2758C14.5264 12.0258 14.6668 11.6866 14.6668 11.333V9.99967C14.1364 9.99967 13.6277 9.78896 13.2526 9.41389C12.8775 9.03882 12.6668 8.53011 12.6668 7.99967C12.6668 7.46924 12.8775 6.96053 13.2526 6.58546C13.6277 6.21039 14.1364 5.99967 14.6668 5.99967V4.66634C14.6668 4.31272 14.5264 3.97358 14.2763 3.72353C14.0263 3.47348 13.6871 3.33301 13.3335 3.33301H2.66683C2.31321 3.33301 1.97407 3.47348 1.72402 3.72353C1.47397 3.97358 1.3335 4.31272 1.3335 4.66634V5.99967Z" stroke="#565ADD" stroke-width="1.33333" stroke-linecap="round" stroke-linejoin="round"/>
<path d="M8.6665 3.33301V4.66634" stroke="#565ADD" stroke-width="1.33333" stroke-linecap="round" stroke-linejoin="round"/>
<path d="M8.6665 11.333V12.6663" stroke="#565ADD" stroke-width="1.33333" stroke-linecap="round" stroke-linejoin="round"/>
<path d="M8.6665 7.33301V8.66634" stroke="#565ADD" stroke-width="1.33333" stroke-linecap="round" stroke-linejoin="round"/>
</svg>
