<svg width="12" height="12" viewBox="0 0 15 12" fill="none" xmlns="http://www.w3.org/2000/svg">
    <path d="M14.4643 4.2C14.6064 4.2 14.7426 4.13679 14.8431 4.02426C14.9436 3.91174 15 3.75913 15 3.6V1.2C15 0.88174 14.8871 0.576515 14.6862 0.351472C14.4853 0.126428 14.2127 0 13.9286 0H1.07143C0.787268 0 0.514746 0.126428 0.313814 0.351472C0.112882 0.576515 0 0.88174 0 1.2V3.6C0 3.75913 0.0564411 3.91174 0.156907 4.02426C0.257373 4.13679 0.393634 4.2 0.535714 4.2C0.961955 4.2 1.37074 4.38964 1.67214 4.72721C1.97353 5.06477 2.14286 5.52261 2.14286 6C2.14286 6.47739 1.97353 6.93523 1.67214 7.27279C1.37074 7.61036 0.961955 7.8 0.535714 7.8C0.393634 7.8 0.257373 7.86321 0.156907 7.97574C0.0564411 8.08826 0 8.24087 0 8.4V10.8C0 11.1183 0.112882 11.4235 0.313814 11.6485C0.514746 11.8736 0.787268 12 1.07143 12H13.9286C14.2127 12 14.4853 11.8736 14.6862 11.6485C14.8871 11.4235 15 11.1183 15 10.8V8.4C15 8.24087 14.9436 8.08826 14.8431 7.97574C14.7426 7.86321 14.6064 7.8 14.4643 7.8C14.038 7.8 13.6293 7.61036 13.3279 7.27279C13.0265 6.93523 12.8571 6.47739 12.8571 6C12.8571 5.52261 13.0265 5.06477 13.3279 4.72721C13.6293 4.38964 14.038 4.2 14.4643 4.2ZM1.07143 8.94C1.67694 8.80229 2.22133 8.43436 2.61234 7.89856C3.00336 7.36275 3.21697 6.69201 3.21697 6C3.21697 5.30799 3.00336 4.63725 2.61234 4.10145C2.22133 3.56564 1.67694 3.19771 1.07143 3.06V1.2H4.82143V10.8H1.07143V8.94ZM13.9286 8.94V10.8H5.89286V1.2H13.9286V3.06C13.3231 3.19771 12.7787 3.56564 12.3877 4.10145C11.9966 4.63725 11.783 5.30799 11.783 6C11.783 6.69201 11.9966 7.36275 12.3877 7.89856C12.7787 8.43436 13.3231 8.80229 13.9286 8.94Z" fill="#1A1A1A"/>
</svg>
